<svg id="Layer_1" xmlns="http://www.w3.org/2000/svg" version="1.1" viewBox="22.9 36.5 159.4 41.7" xmlns:xlink="http://www.w3.org/1999/xlink"><defs><style>.st2{fill:#1a443c}</style></defs><path class="st2" d="M53.293 44.042c0.783 -0.694 1.503 -1.348 2.241 -1.982 4.095 -3.524 11.11 -2.879 14.611 1.684 1.5 1.956 2.233 4.149 2.234 6.605 0.002 7.163 0.015 14.325 0.019 21.488 0 1.097 -0.745 1.763 -1.953 1.922 -2.051 0.269 -3.582 -0.758 -5.057 -1.934 -0.467 -0.372 -0.772 -0.807 -1.625 -1.448 -0.074 -0.055 -0.236 -0.174 -0.419 -0.143 -0.303 0.052 -0.463 0.481 -0.525 0.656 -0.399 1.117 -0.277 3.558 -0.263 4.066 0.014 0.461 0.085 2.971 -1.443 4.722 -0.105 0.12 -1.852 2.06 -4.186 1.707 -0.297 -0.045 -1.436 -0.259 -2.286 -1.19 -0.568 -0.621 -0.919 -1.44 -0.979 -2.377 -0.022 -0.33 -0.003 -0.664 -0.134 -1.021 -0.044 0.182 -0.106 0.364 -0.129 0.548 -0.256 2.057 -1.45 3.559 -3.188 4 -1.991 0.504 -3.935 -1.003 -4.818 -2.091 -1.238 -1.525 -1.395 -3.397 -1.458 -4.169 -0.2 -2.391 0.393 -4.403 -0.326 -4.727 -0.165 -0.074 -0.344 -0.034 -0.461 0.006l-0.416 0.346c-1.829 1.506 -2.823 2.11 -3.586 2.617 -0.872 0.578 -1.902 0.554 -2.905 0.395 -1.248 -0.198 -1.789 -0.835 -1.796 -2.148 -0.017 -2.949 -0.011 -5.899 -0.007 -8.848 0.005 -4.391 -0.023 -8.782 0.037 -13.173 0.051 -3.707 3.049 -7.701 6.499 -9.002 4.304 -1.624 9.265 -0.381 12.019 3.171 0.12 0.155 0.269 0.287 0.301 0.322Zm0.21 29.56c0.09 -1.404 0.499 -2.697 1.219 -3.899 1.1 -1.834 2.785 -2.868 4.78 -3.463 2.959 -0.882 5.851 -0.848 8.63 0.661 0.479 0.26 0.611 0.156 0.609 -0.492 -0.01 -5.388 -0.015 -10.776 -0.042 -16.164 -0.02 -3.925 -3.398 -7.31 -7.595 -6.73 -2.9 0.401 -5.506 2.863 -5.745 5.781 -0.13 1.586 -0.07 3.189 -0.077 4.784 -0.02 3.969 -0.025 7.938 -0.045 11.906 -0.005 1.016 -0.69 1.823 -1.583 1.916 -1.02 0.106 -1.847 -0.506 -2.055 -1.568 -0.072 -0.365 -0.057 -0.749 -0.058 -1.124 -0.016 -5.122 0.024 -10.244 -0.059 -15.365 -0.041 -2.522 -1.302 -4.429 -3.534 -5.625 -2.231 -1.196 -4.485 -0.993 -6.597 0.245 -2.256 1.323 -3.257 3.449 -3.26 6.021 -0.003 3.125 0.087 6.25 0.095 9.375 0.005 2.105 -0.065 4.209 -0.093 6.315 -0.003 0.25 0.045 0.5 0.074 0.797 0.852 -0.332 1.592 -0.691 2.371 -0.912 2.448 -0.696 4.865 -0.452 7.258 0.324 2.694 0.873 4.453 2.642 5.238 5.365 0.176 0.611 0.314 1.234 0.469 1.852Z"></path><path d="M47.228 61.133c1.117 0.003 1.983 0.816 1.991 1.866 0.007 1.147 -0.862 2.021 -2.005 2.015 -1.177 -0.006 -2.1 -0.919 -2.074 -2.052 0.025 -1.097 0.864 -1.831 2.089 -1.827Zm65.313 -14.167c1.117 0.003 1.983 0.816 1.991 1.866 0.007 1.147 -0.862 2.021 -2.005 2.015 -1.177 -0.006 -2.1 -0.919 -2.074 -2.052 0.025 -1.097 0.864 -1.831 2.089 -1.827ZM59.717 65.011c-1.17 0.129 -1.966 -1.108 -1.976 -1.909 -0.016 -1.211 0.84 -1.978 2.163 -1.965 1.105 0.01 1.902 0.825 1.909 1.95 0.005 0.912 -0.935 2.093 -2.096 1.924" style="fill:#d5af33"></path><path class="st2" d="m85.34 62.324 -2.444 7.4h-3.142l7.994 -23.527h3.666l8.028 23.527h-3.246l-2.514 -7.4zm7.714 -2.374 -2.304 -6.772c-0.524 -1.535 -0.873 -2.932 -1.222 -4.294h-0.07c-0.349 1.396 -0.733 2.827 -1.186 4.258l-2.304 6.806h7.085Zm9.634 -15.009h3.072v24.783H102.688zm8.238 24.783V52.829h3.072v16.895zm8.168 -12.322c0 -1.745 -0.034 -3.176 -0.14 -4.573h2.688l0.14 2.723h0.105c0.943 -1.606 2.514 -3.106 5.306 -3.106 2.304 0 4.049 1.396 4.782 3.385h0.07c0.524 -0.943 1.186 -1.675 1.885 -2.199 1.013 -0.768 2.129 -1.186 3.735 -1.186 2.234 0 5.55 1.466 5.55 7.33v9.948h-3.002v-9.565c0 -3.246 -1.186 -5.201 -3.666 -5.201 -1.745 0 -3.106 1.292 -3.63 2.793 -0.14 0.419 -0.245 0.977 -0.245 1.535v10.436h-3.002v-10.123c0 -2.688 -1.186 -4.643 -3.525 -4.643 -1.92 0 -3.316 1.535 -3.805 3.072 -0.175 0.454 -0.245 0.977 -0.245 1.501v10.193h-3.002V57.401Zm43.248 7.715c0 1.745 0.034 3.281 0.14 4.607h-2.723l-0.175 -2.757h-0.07c-0.803 1.361 -2.583 3.142 -5.585 3.142 -2.653 0 -5.829 -1.466 -5.829 -7.4v-9.878h3.072v9.355c0 3.211 0.977 5.375 3.77 5.375 2.059 0 3.491 -1.431 4.049 -2.793 0.174 -0.454 0.279 -1.013 0.279 -1.571v-10.367h3.072v12.286Zm5.096 -7.715c0 -1.745 -0.034 -3.176 -0.14 -4.573h2.723l0.174 2.793h0.07c0.837 -1.605 2.793 -3.176 5.585 -3.176 2.339 0 5.969 1.396 5.969 7.191v10.088h-3.072v-9.739c0 -2.723 -1.013 -4.992 -3.909 -4.992 -2.025 0 -3.595 1.431 -4.119 3.142 -0.14 0.384 -0.209 0.907 -0.209 1.431v10.157h-3.072z"></path></svg>