<?xml version="1.0" encoding="UTF-8"?>
<svg id="Layer_1" xmlns="http://www.w3.org/2000/svg" version="1.1" viewBox="0 0 1920 1080">
  <!-- Generator: Adobe Illustrator 29.2.1, SVG Export Plug-In . SVG Version: 2.1.0 Build 116)  -->
  <defs>
    <style>
      .st0 {
        fill: #fff;
      }

      .st1 {
        fill: #d5af33;
      }

      .st2 {
        fill: #1a443c;
      }
    </style>
  </defs>
  <g>
    <g>
      <path class="st2" d="M511.61,422.8c7.52-6.66,14.43-12.94,21.51-19.03,39.31-33.83,106.66-27.64,140.27,16.17,14.4,18.78,21.44,39.83,21.45,63.41.02,68.76.14,137.52.18,206.28,0,10.53-7.15,16.92-18.75,18.45-19.69,2.58-34.39-7.28-48.55-18.57-4.48-3.57-7.41-7.75-15.6-13.9-.71-.53-2.27-1.67-4.02-1.37-2.91.5-4.44,4.62-5.04,6.3-3.83,10.72-2.66,34.16-2.52,39.03.13,4.43.82,28.52-13.85,45.33-1.01,1.15-17.78,19.78-40.19,16.39-2.85-.43-13.79-2.49-21.95-11.42-5.45-5.96-8.82-13.82-9.4-22.82-.21-3.17-.03-6.37-1.29-9.8-.42,1.75-1.02,3.49-1.24,5.26-2.46,19.75-13.92,34.17-30.6,38.4-19.11,4.84-37.78-9.63-46.25-20.07-11.88-14.64-13.39-32.61-14-40.02-1.92-22.95,3.77-42.27-3.13-45.38-1.58-.71-3.3-.33-4.43.06-.95.79-2.33,1.94-3.99,3.32-17.56,14.46-27.1,20.26-34.43,25.12-8.37,5.55-18.26,5.32-27.89,3.79-11.98-1.9-17.17-8.02-17.24-20.62-.16-28.31-.11-56.63-.07-84.94.05-42.15-.22-84.31.36-126.46.49-35.59,29.27-73.93,62.39-86.42,41.32-15.59,88.94-3.66,115.38,30.44,1.15,1.49,2.58,2.76,2.89,3.09ZM513.63,706.58c.86-13.48,4.79-25.89,11.7-37.43,10.56-17.61,26.74-27.53,45.89-33.24,28.41-8.47,56.17-8.14,82.85,6.35,4.6,2.5,5.87,1.5,5.85-4.72-.1-51.72-.14-103.45-.4-155.17-.19-37.68-32.62-70.18-72.91-64.61-27.84,3.85-52.86,27.48-55.15,55.5-1.25,15.23-.67,30.61-.74,45.93-.19,38.1-.24,76.2-.43,114.3-.05,9.75-6.62,17.5-15.2,18.39-9.79,1.02-17.73-4.86-19.73-15.05-.69-3.5-.55-7.19-.56-10.79-.15-49.17.23-98.34-.57-147.5-.39-24.21-12.5-42.52-33.93-54-21.42-11.48-43.06-9.53-63.33,2.35-21.66,12.7-31.27,33.11-31.3,57.8-.03,30,.84,60,.91,90,.05,20.21-.62,40.41-.89,60.62-.03,2.4.43,4.8.71,7.65,8.18-3.19,15.28-6.63,22.76-8.76,23.5-6.68,46.7-4.34,69.68,3.11,25.86,8.38,42.75,25.36,50.28,51.5,1.69,5.87,3.01,11.85,4.5,17.78Z"/>
      <path class="st1" d="M453.39,586.88c10.72.03,19.04,7.83,19.11,17.91.07,11.01-8.28,19.4-19.25,19.34-11.3-.06-20.16-8.82-19.91-19.7.24-10.53,8.29-17.58,20.05-17.54Z"/>
      <path class="st1" d="M1080.39,450.88c10.72.03,19.04,7.83,19.11,17.91.07,11.01-8.28,19.4-19.25,19.34-11.3-.06-20.16-8.82-19.91-19.7.24-10.53,8.29-17.58,20.05-17.54Z"/>
      <path class="st1" d="M573.28,624.11c-11.23,1.24-18.87-10.64-18.97-18.33-.15-11.63,8.06-18.99,20.76-18.86,10.61.1,18.26,7.92,18.33,18.72.05,8.76-8.98,20.09-20.12,18.47Z"/>
    </g>
    <g>
      <path class="st2" d="M819.26,598.31l-23.46,71.04h-30.16l76.74-225.86h35.19l77.07,225.86h-31.16l-24.13-71.04h-80.09ZM893.31,575.52l-22.12-65.01c-5.03-14.74-8.38-28.15-11.73-41.22h-.67c-3.35,13.4-7.04,27.14-11.39,40.88l-22.12,65.34h68.02Z"/>
      <path class="st2" d="M985.8,431.43h29.49v237.92h-29.49v-237.92Z"/>
      <path class="st2" d="M1064.88,669.35v-162.19h29.49v162.19h-29.49Z"/>
      <path class="st2" d="M1143.29,551.06c0-16.75-.33-30.49-1.34-43.9h25.8l1.34,26.14h1.01c9.05-15.42,24.13-29.82,50.94-29.82,22.12,0,38.87,13.4,45.91,32.5h.67c5.03-9.05,11.39-16.08,18.1-21.11,9.72-7.37,20.44-11.39,35.86-11.39,21.45,0,53.28,14.07,53.28,70.37v95.5h-28.82v-91.82c0-31.16-11.39-49.93-35.19-49.93-16.75,0-29.82,12.4-34.85,26.81-1.34,4.02-2.35,9.38-2.35,14.74v100.19h-28.82v-97.18c0-25.8-11.39-44.57-33.84-44.57-18.43,0-31.83,14.74-36.53,29.49-1.68,4.36-2.35,9.38-2.35,14.41v97.85h-28.82v-118.29Z"/>
      <path class="st2" d="M1558.47,625.12c0,16.75.33,31.5,1.34,44.23h-26.14l-1.68-26.47h-.67c-7.71,13.07-24.8,30.16-53.62,30.16-25.47,0-55.96-14.07-55.96-71.04v-94.83h29.49v89.81c0,30.83,9.38,51.6,36.19,51.6,19.77,0,33.51-13.74,38.87-26.81,1.67-4.36,2.68-9.72,2.68-15.08v-99.52h29.49v117.95Z"/>
      <path class="st2" d="M1607.39,551.06c0-16.75-.33-30.49-1.34-43.9h26.14l1.67,26.81h.67c8.04-15.41,26.81-30.49,53.62-30.49,22.45,0,57.3,13.4,57.3,69.03v96.84h-29.49v-93.49c0-26.14-9.72-47.92-37.53-47.92-19.44,0-34.51,13.74-39.54,30.16-1.34,3.69-2.01,8.71-2.01,13.74v97.51h-29.49v-118.29Z"/>
    </g>
  </g>
</svg>